<?xml version="1.0" encoding="UTF-8"?>
<!DOCTYPE svg PUBLIC "-//W3C//DTD SVG 1.1//EN" "http://www.w3.org/Graphics/SVG/1.1/DTD/svg11.dtd">
<svg xmlns="http://www.w3.org/2000/svg" version="1.1" width="24px" height="24px" style="shape-rendering:geometricPrecision; text-rendering:geometricPrecision; image-rendering:optimizeQuality; fill-rule:evenodd; clip-rule:evenodd" xmlns:xlink="http://www.w3.org/1999/xlink">
<g><path style="opacity:0.989" fill="#d3d3d3" d="M 232.5,-0.5 C 247.833,-0.5 263.167,-0.5 278.5,-0.5C 368.144,10.3879 435.644,54.7213 481,132.5C 497.695,163.971 507.861,197.304 511.5,232.5C 511.5,247.833 511.5,263.167 511.5,278.5C 500.612,368.144 456.279,435.644 378.5,481C 347.029,497.695 313.696,507.861 278.5,511.5C 263.167,511.5 247.833,511.5 232.5,511.5C 142.856,500.612 75.3562,456.279 30,378.5C 13.3053,347.029 3.1386,313.696 -0.5,278.5C -0.5,263.167 -0.5,247.833 -0.5,232.5C 10.3875,142.857 54.7208,75.3573 132.5,30C 163.971,13.3053 197.304,3.1386 232.5,-0.5 Z"/></g>
<g><path style="opacity:1" fill="#fefefe" d="M 237.5,34.5 C 330.534,31.5875 401.034,69.5875 449,148.5C 485.586,219.787 485.586,291.12 449,362.5C 405.521,435.512 341.021,473.512 255.5,476.5C 170.009,473.525 105.509,435.525 62,362.5C 25.3692,291.106 25.3692,219.773 62,148.5C 101.658,81.7395 160.158,43.7395 237.5,34.5 Z"/></g>
<g><path style="opacity:1" fill="#fb070e" d="M 389.5,127.5 C 300.167,128.833 210.833,128.833 121.5,127.5C 163.918,84.0756 215.585,65.2423 276.5,71C 321.042,76.6042 358.709,95.4375 389.5,127.5 Z"/></g>
<g><path style="opacity:1" fill="#fc0d19" d="M 121.5,127.5 C 210.833,128.833 300.167,128.833 389.5,127.5C 401.122,139.409 410.789,152.743 418.5,167.5C 405.017,168.833 391.183,169.499 377,169.5C 362.996,169.5 349.163,169.167 335.5,168.5C 339.57,156.467 339.404,144.467 335,132.5C 333.991,131.342 332.658,130.675 331,130.5C 325.752,131.707 320.919,133.873 316.5,137C 310.613,142.384 305.28,148.217 300.5,154.5C 296.212,151.791 291.545,149.958 286.5,149C 267.156,145.735 247.823,145.735 228.5,149C 224.195,149.903 220.361,151.737 217,154.5C 211.829,148.297 206.329,142.463 200.5,137C 195.67,133.835 190.503,131.335 185,129.5C 184.228,129.645 183.561,129.978 183,130.5C 178.935,143.023 178.435,155.69 181.5,168.5C 166.837,169.167 152.004,169.5 137,169.5C 121.818,169.499 106.985,168.833 92.5,167.5C 99.8516,152.483 109.518,139.149 121.5,127.5 Z"/></g>
<g><path style="opacity:1" fill="#fffefe" d="M 335.5,168.5 C 334.402,169.601 334.235,170.934 335,172.5C 344.196,181.907 349.029,193.241 349.5,206.5C 350.383,211.103 350.717,215.77 350.5,220.5C 350.599,229.521 350.266,238.521 349.5,247.5C 347.149,253.881 344.482,260.214 341.5,266.5C 336.482,273.851 330.148,279.851 322.5,284.5C 310.715,291.207 298.049,295.54 284.5,297.5C 285.608,300.059 286.941,302.392 288.5,304.5C 289.881,308.737 290.881,313.07 291.5,317.5C 291.5,338.5 291.5,359.5 291.5,380.5C 269.5,380.5 247.5,380.5 225.5,380.5C 225.5,369.5 225.5,358.5 225.5,347.5C 224.209,347.263 223.209,347.596 222.5,348.5C 198.778,353.125 180.445,345.459 167.5,325.5C 164.171,317.499 159.838,310.166 154.5,303.5C 152.721,301.454 151.054,299.287 149.5,297C 145.544,295.882 143.211,293.382 142.5,289.5C 155.356,287.724 165.522,292.057 173,302.5C 184.602,323.21 201.769,329.877 224.5,322.5C 225.018,313.75 227.685,305.75 232.5,298.5C 218.987,295.997 206.32,291.33 194.5,284.5C 187.167,279.167 180.833,272.833 175.5,265.5C 172.425,259.258 169.759,252.925 167.5,246.5C 166.834,238.517 166.501,230.517 166.5,222.5C 166.267,217.105 166.6,211.772 167.5,206.5C 168.222,193.392 173.055,182.059 182,172.5C 182.765,170.934 182.598,169.601 181.5,168.5C 178.435,155.69 178.935,143.023 183,130.5C 183.561,129.978 184.228,129.645 185,129.5C 190.503,131.335 195.67,133.835 200.5,137C 206.329,142.463 211.829,148.297 217,154.5C 220.361,151.737 224.195,149.903 228.5,149C 247.823,145.735 267.156,145.735 286.5,149C 291.545,149.958 296.212,151.791 300.5,154.5C 305.28,148.217 310.613,142.384 316.5,137C 320.919,133.873 325.752,131.707 331,130.5C 332.658,130.675 333.991,131.342 335,132.5C 339.404,144.467 339.57,156.467 335.5,168.5 Z"/></g>
<g><path style="opacity:1" fill="#fc1027" d="M 92.5,167.5 C 106.985,168.833 121.818,169.499 137,169.5C 152.004,169.5 166.837,169.167 181.5,168.5C 182.598,169.601 182.765,170.934 182,172.5C 173.055,182.059 168.222,193.392 167.5,206.5C 137.148,207.159 107.148,206.492 77.5,204.5C 80.589,191.332 85.589,178.998 92.5,167.5 Z"/></g>
<g><path style="opacity:1" fill="#fc1127" d="M 418.5,167.5 C 425.411,178.998 430.411,191.332 433.5,204.5C 405.853,206.492 377.853,207.158 349.5,206.5C 349.029,193.241 344.196,181.907 335,172.5C 334.235,170.934 334.402,169.601 335.5,168.5C 349.163,169.167 362.996,169.5 377,169.5C 391.183,169.499 405.017,168.833 418.5,167.5 Z"/></g>
<g><path style="opacity:1" fill="#fc122e" d="M 77.5,204.5 C 107.148,206.492 137.148,207.159 167.5,206.5C 166.6,211.772 166.267,217.105 166.5,222.5C 165.596,223.209 165.263,224.209 165.5,225.5C 134.833,225.5 104.167,225.5 73.5,225.5C 73.5,223.833 73.5,222.167 73.5,220.5C 73.9174,214.83 75.2507,209.497 77.5,204.5 Z"/></g>
<g><path style="opacity:1" fill="#fc132e" d="M 433.5,204.5 C 435.749,209.497 437.083,214.83 437.5,220.5C 437.5,222.167 437.5,223.833 437.5,225.5C 408.833,225.5 380.167,225.5 351.5,225.5C 351.784,223.585 351.451,221.919 350.5,220.5C 350.717,215.77 350.383,211.103 349.5,206.5C 377.853,207.158 405.853,206.492 433.5,204.5 Z"/></g>
<g><path style="opacity:1" fill="#fd1635" d="M 73.5,220.5 C 73.5,222.167 73.5,223.833 73.5,225.5C 104.167,225.5 134.833,225.5 165.5,225.5C 165.263,224.209 165.596,223.209 166.5,222.5C 166.501,230.517 166.834,238.517 167.5,246.5C 135.338,247.498 103.004,247.832 70.5,247.5C 70.2716,238.222 71.2716,229.222 73.5,220.5 Z"/></g>
<g><path style="opacity:1" fill="#fd1635" d="M 350.5,220.5 C 351.451,221.919 351.784,223.585 351.5,225.5C 380.167,225.5 408.833,225.5 437.5,225.5C 437.5,223.833 437.5,222.167 437.5,220.5C 439.714,229.227 440.714,238.227 440.5,247.5C 410.167,247.5 379.833,247.5 349.5,247.5C 350.266,238.521 350.599,229.521 350.5,220.5 Z"/></g>
<g><path style="opacity:1" fill="#fd173b" d="M 167.5,246.5 C 169.759,252.925 172.425,259.258 175.5,265.5C 140.671,266.498 105.671,266.832 70.5,266.5C 70.5,260.167 70.5,253.833 70.5,247.5C 103.004,247.832 135.338,247.498 167.5,246.5 Z"/></g>
<g><path style="opacity:1" fill="#fd173b" d="M 349.5,247.5 C 379.833,247.5 410.167,247.5 440.5,247.5C 440.5,253.833 440.5,260.167 440.5,266.5C 407.5,266.5 374.5,266.5 341.5,266.5C 344.482,260.214 347.149,253.881 349.5,247.5 Z"/></g>
<g><path style="opacity:1" fill="#fd1b42" d="M 175.5,265.5 C 180.833,272.833 187.167,279.167 194.5,284.5C 154.003,285.499 113.337,285.832 72.5,285.5C 71.1119,279.288 70.4452,272.954 70.5,266.5C 105.671,266.832 140.671,266.498 175.5,265.5 Z"/></g>
<g><path style="opacity:1" fill="#fd1a42" d="M 341.5,266.5 C 374.5,266.5 407.5,266.5 440.5,266.5C 440.291,272.928 439.624,279.261 438.5,285.5C 399.663,285.832 360.996,285.499 322.5,284.5C 330.148,279.851 336.482,273.851 341.5,266.5 Z"/></g>
<g><path style="opacity:1" fill="#fd1f4a" d="M 194.5,284.5 C 206.32,291.33 218.987,295.997 232.5,298.5C 227.685,305.75 225.018,313.75 224.5,322.5C 201.769,329.877 184.602,323.21 173,302.5C 165.522,292.057 155.356,287.724 142.5,289.5C 143.211,293.382 145.544,295.882 149.5,297C 151.054,299.287 152.721,301.454 154.5,303.5C 128.672,304.498 102.672,304.831 76.5,304.5C 75.0147,298.222 73.6814,291.889 72.5,285.5C 113.337,285.832 154.003,285.499 194.5,284.5 Z"/></g>
<g><path style="opacity:1" fill="#fd1d48" d="M 322.5,284.5 C 360.996,285.499 399.663,285.832 438.5,285.5C 437.327,291.861 435.993,298.194 434.5,304.5C 385.833,304.5 337.167,304.5 288.5,304.5C 286.941,302.392 285.608,300.059 284.5,297.5C 298.049,295.54 310.715,291.207 322.5,284.5 Z"/></g>
<g><path style="opacity:1" fill="#fe1f4e" d="M 154.5,303.5 C 159.838,310.166 164.171,317.499 167.5,325.5C 140.005,326.498 112.338,326.831 84.5,326.5C 81.2607,319.455 78.594,312.122 76.5,304.5C 102.672,304.831 128.672,304.498 154.5,303.5 Z"/></g>
<g><path style="opacity:1" fill="#fe1e4e" d="M 288.5,304.5 C 337.167,304.5 385.833,304.5 434.5,304.5C 432.406,312.122 429.739,319.455 426.5,326.5C 381.833,326.5 337.167,326.5 292.5,326.5C 292.81,323.287 292.477,320.287 291.5,317.5C 290.881,313.07 289.881,308.737 288.5,304.5 Z"/></g>
<g><path style="opacity:1" fill="#fe2054" d="M 292.5,326.5 C 337.167,326.5 381.833,326.5 426.5,326.5C 424.282,333.266 421.282,339.599 417.5,345.5C 375.833,345.5 334.167,345.5 292.5,345.5C 292.5,339.167 292.5,332.833 292.5,326.5 Z"/></g>
<g><path style="opacity:1" fill="#fe2259" d="M 167.5,325.5 C 180.445,345.459 198.778,353.125 222.5,348.5C 224.442,353.056 225.108,358.056 224.5,363.5C 184.5,363.5 144.5,363.5 104.5,363.5C 96.1635,352.139 89.4969,339.806 84.5,326.5C 112.338,326.831 140.005,326.498 167.5,325.5 Z"/></g>
<g><path style="opacity:1" fill="#fe235a" d="M 292.5,345.5 C 334.167,345.5 375.833,345.5 417.5,345.5C 414.335,351.834 410.669,357.834 406.5,363.5C 368.5,363.5 330.5,363.5 292.5,363.5C 292.5,357.5 292.5,351.5 292.5,345.5 Z"/></g>
<g><path style="opacity:1" fill="#fe7c9e" d="M 222.5,348.5 C 223.209,347.596 224.209,347.263 225.5,347.5C 225.5,358.5 225.5,369.5 225.5,380.5C 225.5,380.833 225.5,381.167 225.5,381.5C 224.51,375.69 224.177,369.69 224.5,363.5C 225.108,358.056 224.442,353.056 222.5,348.5 Z"/></g>
<g><path style="opacity:1" fill="#fe2560" d="M 104.5,363.5 C 144.5,363.5 184.5,363.5 224.5,363.5C 224.177,369.69 224.51,375.69 225.5,381.5C 247.833,381.5 270.167,381.5 292.5,381.5C 292.5,375.5 292.5,369.5 292.5,363.5C 330.5,363.5 368.5,363.5 406.5,363.5C 401.87,370.429 396.536,376.763 390.5,382.5C 300.5,382.5 210.5,382.5 120.5,382.5C 114.464,376.763 109.13,370.429 104.5,363.5 Z"/></g>
<g><path style="opacity:1" fill="#ffbcce" d="M 291.5,317.5 C 292.477,320.287 292.81,323.287 292.5,326.5C 292.5,332.833 292.5,339.167 292.5,345.5C 292.5,351.5 292.5,357.5 292.5,363.5C 292.5,369.5 292.5,375.5 292.5,381.5C 270.167,381.5 247.833,381.5 225.5,381.5C 225.5,381.167 225.5,380.833 225.5,380.5C 247.5,380.5 269.5,380.5 291.5,380.5C 291.5,359.5 291.5,338.5 291.5,317.5 Z"/></g>
<g><path style="opacity:1" fill="#fe2767" d="M 120.5,382.5 C 210.5,382.5 300.5,382.5 390.5,382.5C 387.371,386.131 384.037,389.631 380.5,393C 375.83,397.327 370.83,401.16 365.5,404.5C 292.167,404.5 218.833,404.5 145.5,404.5C 140.17,401.16 135.17,397.327 130.5,393C 126.963,389.631 123.629,386.131 120.5,382.5 Z"/></g>
<g><path style="opacity:1" fill="#ff2a6d" d="M 145.5,404.5 C 218.833,404.5 292.167,404.5 365.5,404.5C 355.832,412.341 345.166,418.674 333.5,423.5C 281.5,423.5 229.5,423.5 177.5,423.5C 165.834,418.674 155.168,412.341 145.5,404.5 Z"/></g>
<g><path style="opacity:1" fill="#ff3074" d="M 177.5,423.5 C 229.5,423.5 281.5,423.5 333.5,423.5C 295.794,440.795 256.46,445.295 215.5,437C 202.124,434.155 189.457,429.655 177.5,423.5 Z"/></g>
</svg>
